<svg xmlns="http://www.w3.org/2000/svg" width="48" height="56" viewBox="0 0 48 56">
  <ellipse cx="24" cy="49" rx="10" ry="3.5" fill="#0000001c"/>
  <path d="M15 17 C16 8, 32 8, 33 17" fill="#3a2a22"/>
  <path d="M13 16 C17 11, 31 11, 35 16 L33 21 H15Z" fill="#6d4d31"/>
  <rect x="14" y="14" width="20" height="4" rx="2" fill="#c48c4a"/>
  <circle cx="24" cy="19" r="7" fill="#e6b58d"/>
  <rect x="17" y="26" width="14" height="16" rx="5" fill="#2f5b88"/>
  <path d="M18 28 H30 V39 H18Z" fill="#c8704f"/>
  <rect x="12" y="27" width="5" height="11" rx="2.5" fill="#2b4d71"/>
  <rect x="31" y="29" width="5" height="11" rx="2.5" fill="#2b4d71"/>
  <rect x="17" y="40" width="5" height="10" rx="2.5" transform="rotate(8 19.5 45)" fill="#5f4233"/>
  <rect x="27" y="40" width="5" height="10" rx="2.5" transform="rotate(-8 29.5 45)" fill="#5f4233"/>
</svg>
