<svg xmlns="http://www.w3.org/2000/svg" width="128" height="256" viewBox="0 0 128 256">
  <defs>
    <linearGradient id="grassBase" x1="0" y1="0" x2="0" y2="1">
      <stop offset="0" stop-color="#97c66c"/>
      <stop offset="1" stop-color="#6f9d49"/>
    </linearGradient>
    <linearGradient id="pathBase" x1="0" y1="0" x2="0" y2="1">
      <stop offset="0" stop-color="#d8be8c"/>
      <stop offset="1" stop-color="#b18b57"/>
    </linearGradient>
    <linearGradient id="waterBase" x1="0" y1="0" x2="0" y2="1">
      <stop offset="0" stop-color="#7cc4e3"/>
      <stop offset="1" stop-color="#2d7092"/>
    </linearGradient>
    <linearGradient id="fieldBase" x1="0" y1="0" x2="0" y2="1">
      <stop offset="0" stop-color="#88b55d"/>
      <stop offset="1" stop-color="#5d813c"/>
    </linearGradient>
    <linearGradient id="roofBase" x1="0" y1="0" x2="0" y2="1">
      <stop offset="0" stop-color="#d37b58"/>
      <stop offset="1" stop-color="#8f462f"/>
    </linearGradient>
    <linearGradient id="wallBase" x1="0" y1="0" x2="0" y2="1">
      <stop offset="0" stop-color="#eadcc4"/>
      <stop offset="1" stop-color="#b99669"/>
    </linearGradient>
    <linearGradient id="cliffBase" x1="0" y1="0" x2="0" y2="1">
      <stop offset="0" stop-color="#76855f"/>
      <stop offset="1" stop-color="#49543c"/>
    </linearGradient>
  </defs>

  <rect width="128" height="256" fill="#0000"/>

  <g transform="translate(0 0)"><rect width="32" height="32" fill="url(#grassBase)"/><path d="M0 22 C6 18, 13 18, 19 22 S28 26, 32 23 V32 H0Z" fill="#5d8440"/><path d="M4 8 L6 4 L8 8 M11 12 L13 8 L15 12 M22 9 L24 5 L26 9 M26 20 L28 16 L30 20" stroke="#c8eb93" stroke-width="1.2" stroke-linecap="round" fill="none"/><circle cx="10" cy="18" r="1.2" fill="#7c5b35"/><circle cx="21" cy="13" r="1" fill="#7c5b35"/></g>
  <g transform="translate(32 0)"><rect width="32" height="32" fill="url(#pathBase)"/><path d="M0 18 C8 12, 17 12, 32 17 V32 H0Z" fill="#9f7848"/><path d="M0 8 C7 6, 14 7, 20 10 S28 13, 32 12" stroke="#edd3a2" stroke-width="2" fill="none" stroke-linecap="round"/><path d="M3 22 C9 19, 15 20, 22 23" stroke="#8c673d" stroke-width="1.5" fill="none" stroke-linecap="round"/><circle cx="8" cy="14" r="1.1" fill="#8e6940"/><circle cx="25" cy="20" r="1.1" fill="#e8cf9c"/></g>
  <g transform="translate(64 0)"><rect width="32" height="32" fill="url(#waterBase)"/><path d="M0 9 C5 6, 11 6, 16 9 S27 12, 32 10" stroke="#daf6ff" stroke-width="2" fill="none" stroke-linecap="round"/><path d="M0 18 C7 15, 16 15, 22 18 S29 20, 32 19" stroke="#1f5572" stroke-width="2" fill="none" stroke-linecap="round"/><path d="M0 25 C8 22, 15 22, 32 26" stroke="#4c95b6" stroke-width="1.8" fill="none" stroke-linecap="round"/><circle cx="11" cy="13" r="1" fill="#eafcff"/><circle cx="24" cy="7" r="0.8" fill="#eafcff"/></g>
  <g transform="translate(96 0)"><rect width="32" height="32" fill="url(#fieldBase)"/><rect y="23" width="32" height="9" fill="#58763a"/><path d="M3 9 C8 7, 14 7, 29 10" stroke="#a7d17b" stroke-width="1.8" fill="none" stroke-linecap="round"/><path d="M1 16 C8 13, 16 13, 31 16" stroke="#9cc56f" stroke-width="1.8" fill="none" stroke-linecap="round"/><path d="M0 24 H32" stroke="#4d6a34" stroke-width="1.2"/></g>

  <g transform="translate(0 32)"><rect width="32" height="32" fill="#8a6841"/><rect x="4" y="19" width="24" height="8" fill="#694221"/><polygon points="2,18 16,7 30,18 26,21 6,21" fill="url(#roofBase)"/><path d="M6 18 L16 10 L26 18" stroke="#f0ad8d" stroke-width="1.4" fill="none" stroke-linecap="round"/><rect x="12" y="22" width="8" height="5" fill="#4f2d18"/></g>
  <g transform="translate(32 32)"><rect width="32" height="32" fill="#8b6940"/><rect x="4" y="8" width="24" height="18" rx="2" fill="url(#wallBase)"/><rect x="7" y="11" width="5" height="5" fill="#bfe1ea"/><rect x="20" y="11" width="5" height="5" fill="#bfe1ea"/><rect x="13" y="16" width="6" height="10" fill="#704423"/><rect x="4" y="6" width="24" height="4" fill="#9e613f"/><path d="M4 10 H28" stroke="#f6edd8" stroke-width="1"/></g>
  <g transform="translate(64 32)"><rect width="32" height="32" fill="#5ea1bb"/><rect x="0" y="14" width="32" height="4" fill="#674221"/><rect x="4" y="10" width="24" height="12" rx="2" fill="#a98156"/><rect x="7" y="7" width="18" height="3" fill="#d8c7a1"/><path d="M0 16 H32" stroke="#8a5b34" stroke-width="1"/><path d="M10 12 V20 M16 12 V20 M22 12 V20" stroke="#8e6840" stroke-width="1"/></g>
  <g transform="translate(96 32)"><rect width="32" height="32" fill="url(#grassBase)"/><path d="M7 26 C9 18, 15 12, 22 7" stroke="#56763a" stroke-width="2" fill="none" stroke-linecap="round"/><circle cx="10" cy="11" r="4.2" fill="#f1d366"/><circle cx="20" cy="17" r="4.2" fill="#e88f52"/><circle cx="14" cy="21" r="3.7" fill="#c7483b"/><circle cx="23" cy="10" r="2.3" fill="#f5e186"/><circle cx="8" cy="19" r="2" fill="#f7be60"/></g>

  <g transform="translate(0 64)"><rect width="32" height="32" fill="url(#cliffBase)"/><polygon points="0,24 10,16 20,10 32,7 32,32 0,32" fill="#4c573f"/><path d="M0 21 L11 15 L18 11 L32 8" stroke="#92a37e" stroke-width="1.6" fill="none" stroke-linecap="round"/><path d="M4 27 L12 21 M18 18 L25 14" stroke="#394431" stroke-width="1.5" stroke-linecap="round"/></g>
  <g transform="translate(32 64)"><rect width="32" height="32" fill="#7eb05c"/><path d="M0 8 H32 M0 16 H32 M0 24 H32" stroke="#b8de8a" stroke-width="2"/><path d="M8 0 V32 M20 0 V32" stroke="#96c46f" stroke-width="1.8"/><path d="M0 31 H32" stroke="#5d7a3d" stroke-width="2"/></g>
  <g transform="translate(64 64)"><rect width="32" height="32" fill="url(#grassBase)"/><rect x="14" y="6" width="4" height="18" fill="#6f4825"/><rect x="9" y="9" width="14" height="4" fill="#efe4c6"/><rect x="9" y="15" width="14" height="4" fill="#efe4c6"/><rect x="8" y="22" width="16" height="2" fill="#5d8440"/><path d="M11 11 H21 M11 17 H21" stroke="#b39b67" stroke-width="1"/></g>
  <g transform="translate(96 64)"><rect width="32" height="32" fill="url(#grassBase)"/><rect x="8" y="4" width="4" height="24" fill="#6f8f4f"/><rect x="14" y="6" width="4" height="22" fill="#638348"/><rect x="20" y="3" width="4" height="25" fill="#7da65a"/><path d="M6 7 C9 3, 12 3, 14 7" stroke="#c8e89b" stroke-width="1.6" fill="none" stroke-linecap="round"/><path d="M18 9 C21 5, 24 5, 27 9" stroke="#c8e89b" stroke-width="1.6" fill="none" stroke-linecap="round"/><path d="M7 25 H25" stroke="#5d8440" stroke-width="1"/></g>

  <g transform="translate(0 96)"><rect width="32" height="32" fill="#dfccac"/><path d="M0 10 H32" stroke="#f8ecd2" stroke-width="2" stroke-linecap="round"/><path d="M0 21 H32" stroke="#a68052" stroke-width="3" stroke-linecap="round"/><path d="M4 14 H28" stroke="#c5a274" stroke-width="1" stroke-linecap="round"/><path d="M3 25 H29" stroke="#7d5c36" stroke-width="1" stroke-linecap="round"/></g>
  <g transform="translate(32 96)"><rect width="32" height="32" fill="#77a853"/><polygon points="16,5 26,15 16,25 6,15" fill="#efe3c8"/><circle cx="16" cy="15" r="3" fill="#7b5330"/><path d="M16 8 V22 M9 15 H23" stroke="#d9c294" stroke-width="1"/></g>
  <g transform="translate(64 96)"><rect width="32" height="32" fill="#6f9f49"/><rect x="4" y="4" width="24" height="24" rx="4" fill="#95bc6e"/><path d="M9 9 H23 V23 H9Z" fill="none" stroke="#6c8d4d" stroke-width="1.8"/><path d="M12 12 H20 M12 16 H20 M12 20 H20" stroke="#b8dc8e" stroke-width="1"/></g>
  <g transform="translate(96 96)"><rect width="32" height="32" fill="#90bc69"/><circle cx="11" cy="18" r="6.5" fill="#d8ebaa"/><circle cx="21" cy="11" r="5.5" fill="#c0de8e"/><path d="M11 23 V30" stroke="#648544" stroke-width="2" stroke-linecap="round"/><path d="M21 16 V30" stroke="#648544" stroke-width="2" stroke-linecap="round"/><circle cx="8" cy="17" r="1.1" fill="#eff8d2"/><circle cx="19" cy="10" r="1.1" fill="#eff8d2"/></g>

  <g transform="translate(0 128)"><rect width="32" height="32" fill="#6e9548"/><path d="M0 24 C5 19, 11 19, 18 24 S28 28, 32 24 V32 H0Z" fill="#56773a"/><circle cx="8" cy="9" r="2" fill="#7aa255"/><circle cx="20" cy="14" r="2.4" fill="#7aa255"/><circle cx="15" cy="7" r="1.2" fill="#b8db84"/></g>
  <g transform="translate(32 128)"><rect width="32" height="32" fill="url(#grassBase)"/><circle cx="8" cy="11" r="2.2" fill="#f4d96d"/><circle cx="14" cy="15" r="2.1" fill="#e56a60"/><circle cx="21" cy="10" r="2.1" fill="#f7f2dc"/><circle cx="12" cy="21" r="2.1" fill="#d98fe3"/><circle cx="22" cy="20" r="2.1" fill="#f8ab58"/><path d="M7 25 C11 20, 18 18, 24 14" stroke="#5a7c3a" stroke-width="1.2" fill="none"/></g>
  <g transform="translate(64 128)"><rect width="32" height="32" fill="url(#grassBase)"/><circle cx="10" cy="20" r="4.5" fill="#9ca59c"/><circle cx="20" cy="12" r="3.8" fill="#b1b9af"/><circle cx="22" cy="21" r="3.6" fill="#858d84"/><circle cx="9" cy="10" r="2.5" fill="#c2c8bf"/></g>
  <g transform="translate(96 128)"><rect width="32" height="32" fill="url(#grassBase)"/><circle cx="10" cy="14" r="6" fill="#54723a"/><circle cx="19" cy="11" r="5" fill="#628845"/><circle cx="16" cy="20" r="6.5" fill="#6f964d"/><path d="M16 19 V30" stroke="#6e4a29" stroke-width="2"/></g>

  <g transform="translate(0 160)"><rect width="32" height="32" fill="url(#grassBase)"/><rect x="14" y="12" width="4" height="18" fill="#654221"/><circle cx="16" cy="10" r="8" fill="#4e6f39"/><circle cx="10" cy="16" r="7" fill="#5d8540"/><circle cx="22" cy="16" r="7" fill="#6d9750"/></g>
  <g transform="translate(32 160)"><rect width="32" height="32" fill="url(#grassBase)"/><polygon points="16,4 26,20 6,20" fill="#5a7444"/><polygon points="16,9 24,22 8,22" fill="#6d8d52"/><rect x="14" y="20" width="4" height="10" fill="#6f4a2a"/></g>
  <g transform="translate(64 160)"><rect width="32" height="32" fill="#8c6845"/><rect x="4" y="18" width="24" height="8" fill="#714725"/><polygon points="2,18 16,9 30,18 26,21 6,21" fill="#8c4e35"/><path d="M6 18 L16 12 L26 18" stroke="#c18f72" stroke-width="1.2" fill="none"/></g>
  <g transform="translate(96 160)"><rect width="32" height="32" fill="url(#grassBase)"/><line x1="6" y1="11" x2="26" y2="11" stroke="#7c5a33" stroke-width="2"/><line x1="10" y1="11" x2="10" y2="24" stroke="#7c5a33" stroke-width="1.6"/><line x1="22" y1="11" x2="22" y2="24" stroke="#7c5a33" stroke-width="1.6"/><path d="M10 13 C13 16, 19 16, 22 13" stroke="#f4f1e2" stroke-width="2" fill="none"/><path d="M10 17 C13 20, 19 20, 22 17" stroke="#d0e4f2" stroke-width="2" fill="none"/></g>

  <g transform="translate(0 192)"><rect width="32" height="32" fill="#d9bf8d"/><rect x="6" y="14" width="7" height="7" fill="#94663a"/><rect x="14" y="11" width="9" height="9" fill="#7d512a"/><rect x="17" y="18" width="8" height="6" fill="#a17142"/></g>
  <g transform="translate(32 192)"><rect width="32" height="32" fill="#c59b65"/><rect x="3" y="10" width="26" height="12" rx="2" fill="#855530"/><path d="M3 10 H29 L25 6 H7Z" fill="#d98b57"/><path d="M9 12 V22 M16 12 V22 M23 12 V22" stroke="#f0d2ab" stroke-width="1"/></g>
  <g transform="translate(64 192)"><rect width="32" height="32" fill="url(#grassBase)"/><path d="M6 25 V11 M16 25 V8 M26 25 V12" stroke="#8a6740" stroke-width="2"/><path d="M5 12 H17" stroke="#d9c79c" stroke-width="2"/><path d="M15 9 H27" stroke="#d9c79c" stroke-width="2"/></g>
  <g transform="translate(96 192)"><rect width="32" height="32" fill="url(#grassBase)"/><path d="M4 11 H28 M4 19 H28" stroke="#916e45" stroke-width="2"/><path d="M8 10 V28 M16 10 V28 M24 10 V28" stroke="#7d5d38" stroke-width="1.8"/></g>

  <g transform="translate(0 224)"><rect width="32" height="32" fill="url(#pathBase)"/><path d="M7 0 C11 7, 11 25, 7 32" stroke="#946c42" stroke-width="3" fill="none"/><path d="M24 0 C20 7, 20 25, 24 32" stroke="#946c42" stroke-width="3" fill="none"/><path d="M15 0 V32" stroke="#efd4a2" stroke-width="2"/></g>
  <g transform="translate(32 224)"><rect width="32" height="32" fill="#6f9d49"/><rect y="22" width="32" height="10" fill="#5a7f3b"/><path d="M8 20 C10 15, 11 11, 12 7" stroke="#85ab5f" stroke-width="1.5"/><path d="M15 20 C17 15, 18 10, 19 5" stroke="#85ab5f" stroke-width="1.5"/><path d="M22 20 C24 15, 25 11, 26 8" stroke="#85ab5f" stroke-width="1.5"/></g>
  <g transform="translate(64 224)"><rect width="32" height="32" fill="url(#grassBase)"/><rect x="13" y="10" width="6" height="13" fill="#cbb388"/><polygon points="10,12 16,5 22,12 19,12 19,23 13,23 13,12" fill="#efe3c1"/><path d="M10 23 H22" stroke="#7a5d34" stroke-width="1.5"/></g>
  <g transform="translate(96 224)"><rect width="32" height="32" fill="url(#grassBase)"/><path d="M16 30 V17" stroke="#6c4c2e" stroke-width="2"/><path d="M11 18 C8 15, 8 10, 12 8 C14 7, 16 8, 16 10" stroke="#87b85c" stroke-width="3" fill="none" stroke-linecap="round"/><path d="M21 17 C24 14, 24 9, 20 7 C18 6, 16 7, 16 9" stroke="#9ecf6d" stroke-width="3" fill="none" stroke-linecap="round"/><path d="M16 16 C13 13, 12 9, 15 6 C16 5, 18 5, 19 7" stroke="#7dad53" stroke-width="3" fill="none" stroke-linecap="round"/></g>
</svg>
