<svg xmlns="http://www.w3.org/2000/svg" width="128" height="128" viewBox="0 0 128 128">
  <rect width="128" height="128" fill="#00000000"/>

  <g transform="translate(0 0)">
    <rect width="32" height="32" fill="#8fba63"/>
    <path d="M0 18 C7 13, 14 13, 18 18 S28 24, 32 20 V32 H0Z" fill="#7aa454"/>
    <circle cx="9" cy="9" r="2" fill="#a9d67b"/>
    <circle cx="25" cy="15" r="1.6" fill="#79a250"/>
  </g>

  <g transform="translate(32 0)">
    <rect width="32" height="32" fill="#c9a46b"/>
    <path d="M0 18 C8 14, 18 14, 32 17 V32 H0Z" fill="#b58c56"/>
    <path d="M0 9 C8 6, 20 7, 32 12" stroke="#e0bf82" stroke-width="2" fill="none"/>
  </g>

  <g transform="translate(64 0)">
    <rect width="32" height="32" fill="#5e9ac3"/>
    <path d="M0 8 C7 5, 15 5, 21 8 S29 11, 32 9" stroke="#cfeeff" stroke-width="2" fill="none"/>
    <path d="M0 21 C10 18, 18 18, 32 22" stroke="#3d769d" stroke-width="2" fill="none"/>
  </g>

  <g transform="translate(96 0)">
    <rect width="32" height="32" fill="#729e55"/>
    <rect y="24" width="32" height="8" fill="#5b7d44"/>
    <path d="M0 10 H32" stroke="#9bc47e" stroke-width="2"/>
    <path d="M0 18 H32" stroke="#9bc47e" stroke-width="2"/>
  </g>

  <g transform="translate(0 32)">
    <rect width="32" height="32" fill="#8e5d38"/>
    <polygon points="2,18 16,6 30,18 30,22 2,22" fill="#b95c43"/>
    <rect x="5" y="22" width="22" height="7" fill="#7a4727"/>
  </g>

  <g transform="translate(32 32)">
    <rect width="32" height="32" fill="#986841"/>
    <rect x="4" y="6" width="24" height="20" rx="2" fill="#cba37b"/>
    <rect x="13" y="14" width="6" height="12" fill="#84512f"/>
    <rect x="7" y="11" width="4" height="4" fill="#ffffffaa"/>
    <rect x="21" y="11" width="4" height="4" fill="#ffffffaa"/>
  </g>

  <g transform="translate(64 32)">
    <rect width="32" height="32" fill="#5e9ac3"/>
    <rect x="3" y="9" width="26" height="14" rx="3" fill="#a87e54"/>
    <rect x="0" y="14" width="32" height="4" fill="#7a5533"/>
    <rect x="6" y="5" width="20" height="4" fill="#d6c7ab"/>
  </g>

  <g transform="translate(96 32)">
    <rect width="32" height="32" fill="#8fba63"/>
    <circle cx="11" cy="11" r="4" fill="#f5d774"/>
    <circle cx="20" cy="16" r="4" fill="#ee964b"/>
    <circle cx="14" cy="21" r="3.5" fill="#f95738"/>
    <path d="M8 27 C11 20, 18 14, 22 8" stroke="#547a3d" stroke-width="2" fill="none"/>
  </g>

  <g transform="translate(0 64)">
    <rect width="32" height="32" fill="#59714a"/>
    <polygon points="0,24 18,10 32,6 32,32 0,32" fill="#465c39"/>
    <path d="M0 18 L14 12" stroke="#7e9268" stroke-width="2"/>
  </g>

  <g transform="translate(32 64)">
    <rect width="32" height="32" fill="#7fb161"/>
    <path d="M0 8 H32" stroke="#b4dd7e" stroke-width="2"/>
    <path d="M0 16 H32" stroke="#b4dd7e" stroke-width="2"/>
    <path d="M0 24 H32" stroke="#b4dd7e" stroke-width="2"/>
    <path d="M8 0 V32" stroke="#90c36b" stroke-width="2"/>
    <path d="M20 0 V32" stroke="#90c36b" stroke-width="2"/>
  </g>

  <g transform="translate(64 64)">
    <rect width="32" height="32" fill="#8fba63"/>
    <rect x="13" y="5" width="6" height="20" fill="#7a4f29"/>
    <rect x="9" y="8" width="14" height="4" fill="#eadfb6"/>
    <rect x="9" y="14" width="14" height="4" fill="#eadfb6"/>
  </g>

  <g transform="translate(96 64)">
    <rect width="32" height="32" fill="#8fba63"/>
    <rect x="8" y="4" width="4" height="24" fill="#7d9b54"/>
    <rect x="14" y="7" width="4" height="21" fill="#6e8d48"/>
    <rect x="20" y="2" width="4" height="26" fill="#87a85f"/>
    <path d="M6 6 C10 2, 14 2, 16 6" stroke="#b7db84" stroke-width="2" fill="none"/>
    <path d="M18 8 C22 4, 26 4, 28 8" stroke="#b7db84" stroke-width="2" fill="none"/>
  </g>

  <g transform="translate(0 96)">
    <rect width="32" height="32" fill="#d7c29d"/>
    <path d="M0 21 H32" stroke="#a6845a" stroke-width="3"/>
    <path d="M0 11 H32" stroke="#f0dfbf" stroke-width="2"/>
  </g>

  <g transform="translate(32 96)">
    <rect width="32" height="32" fill="#7eab5b"/>
    <polygon points="16,4 26,14 16,24 6,14" fill="#e4d7b1"/>
    <circle cx="16" cy="14" r="3" fill="#81532c"/>
  </g>

  <g transform="translate(64 96)">
    <rect width="32" height="32" fill="#7aa257"/>
    <rect x="4" y="4" width="24" height="24" rx="4" fill="#95be6d"/>
    <path d="M8 8 H24 V24 H8Z" fill="none" stroke="#6b8f49" stroke-width="2"/>
  </g>

  <g transform="translate(96 96)">
    <rect width="32" height="32" fill="#92c171"/>
    <circle cx="10" cy="18" r="6" fill="#d2e6a3"/>
    <circle cx="21" cy="12" r="5" fill="#b5d981"/>
    <path d="M10 24 L10 30" stroke="#5d7f40" stroke-width="2"/>
    <path d="M21 17 L21 30" stroke="#5d7f40" stroke-width="2"/>
  </g>
</svg>
